<svg xmlns="http://www.w3.org/2000/svg" width="44" height="35.813" viewBox="0 0 44 35.813">
  <g id="location" transform="translate(-6580 -327)">
    <g id="Group_13" data-name="Group 13">
      <g id="Path_34" data-name="Path 34" transform="translate(6604 336)" fill="none">
        <path d="M10,0c5.523,0,10,3.3,10,10S9.984,26.813,9.984,26.813,0,16.7,0,10,4.477,0,10,0Z" stroke="none"/>
        <path d="M 10 2 C 7.655289649963379 2 5.678549766540527 2.677450180053711 4.283490180969238 3.959129333496094 C 2.769800186157227 5.34977912902832 2.001529693603516 7.382619857788086 2 10.00116920471191 C 1.998680114746094 12.26836013793945 3.621189117431641 15.70928955078125 6.568659782409668 19.69009971618652 C 7.811032295227051 21.3680305480957 9.065855979919434 22.84289741516113 9.986172676086426 23.87411308288574 C 10.90903663635254 22.84268569946289 12.16776180267334 21.36710357666016 13.41436004638672 19.68807983398438 C 16.37013053894043 15.70699024200439 17.99868011474609 12.26593971252441 18 9.998830795288086 C 18.00152969360352 7.382099151611328 17.2343692779541 5.350170135498047 15.71984004974365 3.959489822387695 C 14.32377052307129 2.677579879760742 12.34588050842285 2 10 2 M 10 0 C 15.52285003662109 0 20.00391006469727 3.296869277954102 20 10 C 19.99608993530273 16.70312118530273 9.984370231628418 26.8125 9.984370231628418 26.8125 C 9.984370231628418 26.8125 -0.003910064697265625 16.70312118530273 0 10 C 0.003910064697265625 3.296869277954102 4.477149963378906 0 10 0 Z" stroke="none" fill="#3a3a3a"/>
      </g>
      <g id="Ellipse_19" data-name="Ellipse 19" transform="translate(6610 341)" fill="none" stroke="#3a3a3a" stroke-width="2">
        <circle cx="4.5" cy="4.5" r="4.5" stroke="none"/>
        <circle cx="4.5" cy="4.5" r="3.5" fill="none"/>
      </g>
    </g>
    <g id="Group_15" data-name="Group 15" transform="translate(-24 -9)">
      <g id="Path_34-2" data-name="Path 34" transform="translate(6604 336)" fill="none">
        <path d="M6.527,0c3.6,0,6.529,2.152,6.527,6.527S6.517,17.5,6.517,17.5,0,10.9,0,6.527,2.922,0,6.527,0Z" stroke="none"/>
        <path d="M 6.526805877685547 2 C 5.173515796661377 2 4.045845985412598 2.378849983215332 3.265706062316895 3.095580101013184 C 2.426715850830078 3.86637020111084 2.000875473022461 5.021200180053711 1.999996185302734 6.527979850769043 C 1.999236106872559 7.837900161743164 3.032815933227539 9.987209320068359 4.835736274719238 12.42479991912842 C 5.421341419219971 13.21655654907227 6.011931419372559 13.93837833404541 6.518461227416992 14.52838325500488 C 7.026684761047363 13.93797016143799 7.619507789611816 13.21537399291992 8.207345962524414 12.42278003692627 C 10.01542568206787 9.984910011291504 11.0528564453125 7.835490226745605 11.05361557006836 6.525639533996582 C 11.0544958114624 5.020440101623535 10.62942600250244 3.866530418395996 9.790216445922852 3.095939636230469 C 9.009395599365234 2.378970146179199 7.88092565536499 2 6.526805877685547 2 M 6.526805877685547 0 C 10.13146591186523 0 13.05616569519043 2.151809692382813 13.05361557006836 6.526809692382813 C 13.05106544494629 10.90180969238281 6.516605854034424 17.5 6.516605854034424 17.5 C 6.516605854034424 17.5 -0.002553939819335938 10.90180969238281 -3.814697265625e-06 6.526809692382813 C 0.002546310424804688 2.151809692382813 2.922145843505859 0 6.526805877685547 0 Z" stroke="none" fill="#3a3a3a"/>
      </g>
      <g id="Ellipse_19-2" data-name="Ellipse 19" transform="translate(6608 339)" fill="none" stroke="#3a3a3a" stroke-width="2">
        <circle cx="3" cy="3" r="3" stroke="none"/>
        <circle cx="3" cy="3" r="2" fill="none"/>
      </g>
    </g>
    <path id="Path_35" data-name="Path 35" d="M0,0S.986,6.627,6.736,9.877,23,13,23,13" transform="translate(6586.5 347.5)" fill="none" stroke="#3a3a3a" stroke-width="2"/>
  </g>
</svg>
