<svg xmlns="http://www.w3.org/2000/svg" width="26.438" height="26" viewBox="0 0 26.438 26">
  <g id="menu" transform="translate(-6536 -339)">
    <g id="Ellipse_20" data-name="Ellipse 20" transform="translate(6536 339)" fill="none" stroke="#3a3a3a" stroke-width="2">
      <circle cx="13" cy="13" r="13" stroke="none"/>
      <circle cx="13" cy="13" r="12" fill="none"/>
    </g>
    <g id="Ellipse_21" data-name="Ellipse 21" transform="translate(6544 347)" fill="none" stroke="#3a3a3a" stroke-width="2">
      <circle cx="5.5" cy="5.5" r="5.5" stroke="none"/>
      <circle cx="5.5" cy="5.5" r="4.5" fill="none"/>
    </g>
    <path id="Path_36" data-name="Path 36" d="M0,0A10.4,10.4,0,0,0,4.209,1.217,7.68,7.68,0,0,0,8,0" transform="translate(6536.5 352.5)" fill="none" stroke="#3a3a3a" stroke-width="2"/>
    <path id="Path_37" data-name="Path 37" d="M0,0A18.422,18.422,0,0,0,4.815,1.183,2.171,2.171,0,0,0,7,0" transform="translate(6554.5 352.5)" fill="none" stroke="#3a3a3a" stroke-width="2"/>
    <g id="Ellipse_22" data-name="Ellipse 22" transform="translate(6541 345)" fill="none" stroke="#3a3a3a" stroke-width="2">
      <circle cx="0.5" cy="0.5" r="0.5" stroke="none"/>
      <circle cx="0.5" cy="0.5" r="0.5" fill="none"/>
    </g>
    <g id="Ellipse_23" data-name="Ellipse 23" transform="translate(6546 345)" fill="none" stroke="#3a3a3a" stroke-width="2">
      <circle cx="0.5" cy="0.5" r="0.5" stroke="none"/>
      <circle cx="0.5" cy="0.5" r="0.5" fill="none"/>
    </g>
    <g id="Ellipse_24" data-name="Ellipse 24" transform="translate(6553 344)" fill="none" stroke="#3a3a3a" stroke-width="2">
      <circle cx="0.5" cy="0.5" r="0.5" stroke="none"/>
      <circle cx="0.5" cy="0.5" r="0.5" fill="none"/>
    </g>
    <g id="Ellipse_25" data-name="Ellipse 25" transform="translate(6554 347)" fill="none" stroke="#3a3a3a" stroke-width="2">
      <circle cx="0.5" cy="0.5" r="0.5" stroke="none"/>
      <circle cx="0.5" cy="0.5" r="0.5" fill="none"/>
    </g>
    <g id="Ellipse_28" data-name="Ellipse 28" transform="translate(6558 347)" fill="none" stroke="#3a3a3a" stroke-width="2">
      <circle cx="0.5" cy="0.5" r="0.5" stroke="none"/>
      <circle cx="0.5" cy="0.5" r="0.5" fill="none"/>
    </g>
    <g id="Ellipse_26" data-name="Ellipse 26" transform="translate(6542 350)" fill="none" stroke="#3a3a3a" stroke-width="2">
      <circle cx="0.5" cy="0.5" r="0.5" stroke="none"/>
      <circle cx="0.5" cy="0.5" r="0.5" fill="none"/>
    </g>
    <g id="Ellipse_27" data-name="Ellipse 27" transform="translate(6550 341)" fill="none" stroke="#3a3a3a" stroke-width="2">
      <circle cx="0.5" cy="0.5" r="0.5" stroke="none"/>
      <circle cx="0.5" cy="0.5" r="0.5" fill="none"/>
    </g>
  </g>
</svg>
